HIERARCHY
ROOT hip
{
  OFFSET 3.76371 83.0095 -3.76586
  CHANNELS 6 Xposition Yposition Zposition Zrotation Xrotation Yrotation
  JOINT abdomen
  {
    OFFSET 0 20.6881 -0.73152
    CHANNELS 3 Zrotation Xrotation Yrotation
    JOINT chest
    {
      OFFSET 0 11.7043 -0.48768
      CHANNELS 3 Zrotation Xrotation Yrotation
      JOINT neck
      {
        OFFSET 0 22.1894 -2.19456
        CHANNELS 3 Zrotation Xrotation Yrotation
        JOINT head
        {
          OFFSET -0.24384 7.07133 1.2192
          CHANNELS 3 Zrotation Xrotation Yrotation
          JOINT leftEye
          {
            OFFSET 4.14528 8.04674 8.04672
            CHANNELS 3 Zrotation Xrotation Yrotation
            End Site
            {
              OFFSET 1 0 0
            }
          }
          JOINT rightEye
          {
            OFFSET -3.6576 8.04674 8.04672
            CHANNELS 3 Zrotation Xrotation Yrotation
            End Site
            {
              OFFSET 1 0 0
            }
          }
        }
      }
      JOINT rCollar
      {
        OFFSET -2.68224 19.2634 -4.8768
        CHANNELS 3 Zrotation Xrotation Yrotation
        JOINT rShldr
        {
          OFFSET -8.77824 -1.95073 1.46304
          CHANNELS 3 Zrotation Xrotation Yrotation
          JOINT rForeArm
          {
            OFFSET -28.1742 -1.7115 0.48768
            CHANNELS 3 Zrotation Xrotation Yrotation
            JOINT rHand
            {
              OFFSET -22.5879 0.773209 7.07136
              CHANNELS 3 Zrotation Xrotation Yrotation
              JOINT rThumb1
              {
                OFFSET -1.2192 -0.487915 3.41376
                CHANNELS 3 Zrotation Xrotation Yrotation
                JOINT rThumb2
                {
                  OFFSET -3.37035 -0.52449 3.41376
                  CHANNELS 3 Zrotation Xrotation Yrotation
                  End Site
                  {
                    OFFSET -1.78271 -1.18214 1.43049
                  }
                }
              }
              JOINT rIndex1
              {
                OFFSET -7.75947 0.938293 5.60832
                CHANNELS 3 Zrotation Xrotation Yrotation
                JOINT rIndex2
                {
                  OFFSET -2.54057 -0.884171 1.56538
                  CHANNELS 3 Zrotation Xrotation Yrotation
                  End Site
                  {
                    OFFSET -1.62519 -0.234802 1.16502
                  }
                }
              }
              JOINT rMid1
              {
                OFFSET -8.24714 1.18213 3.41376
                CHANNELS 3 Zrotation Xrotation Yrotation
                JOINT rMid2
                {
                  OFFSET -3.10165 -0.590103 1.0647
                  CHANNELS 3 Zrotation Xrotation Yrotation
                  End Site
                  {
                    OFFSET -2.48547 -0.328903 0.83742
                  }
                }
              }
              JOINT rRing1
              {
                OFFSET -8.82822 0.546677 1.51678
                CHANNELS 3 Zrotation Xrotation Yrotation
                JOINT rRing2
                {
                  OFFSET -2.60934 -0.819778 -0.0198488
                  CHANNELS 3 Zrotation Xrotation Yrotation
                  End Site
                  {
                    OFFSET -2.33842 -0.294052 0.168128
                  }
                }
              }
              JOINT rPinky1
              {
                OFFSET -8.27202 -0.0477905 -0.4584
                CHANNELS 3 Zrotation Xrotation Yrotation
                JOINT rPinky2
                {
                  OFFSET -1.82734 -0.647385 -0.700984
                  CHANNELS 3 Zrotation Xrotation Yrotation
                  End Site
                  {
                    OFFSET -1.69225 -0.51767 -0.607171
                  }
                }
              }
            }
          }
        }
      }
      JOINT lCollar
      {
        OFFSET 2.68224 19.2634 -4.8768
        CHANNELS 3 Zrotation Xrotation Yrotation
        JOINT lShldr
        {
          OFFSET 8.77824 -1.95073 1.46304
          CHANNELS 3 Zrotation Xrotation Yrotation
          JOINT lForeArm
          {
            OFFSET 28.1742 -1.7115 0.48768
            CHANNELS 3 Zrotation Xrotation Yrotation
            JOINT lHand
            {
              OFFSET 22.5879 0.773209 7.07136
              CHANNELS 3 Zrotation Xrotation Yrotation
              JOINT lThumb1
              {
                OFFSET 1.2192 -0.487915 3.41376
                CHANNELS 3 Zrotation Xrotation Yrotation
                JOINT lThumb2
                {
                  OFFSET 3.37035 -0.52449 3.41376
                  CHANNELS 3 Zrotation Xrotation Yrotation
                  End Site
                  {
                    OFFSET 1.78271 -1.18214 1.43049
                  }
                }
              }
              JOINT lIndex1
              {
                OFFSET 7.75947 0.938293 5.60832
                CHANNELS 3 Zrotation Xrotation Yrotation
                JOINT lIndex2
                {
                  OFFSET 2.54057 -0.884171 1.56538
                  CHANNELS 3 Zrotation Xrotation Yrotation
                  End Site
                  {
                    OFFSET 1.62519 -0.234802 1.16502
                  }
                }
              }
              JOINT lMid1
              {
                OFFSET 8.24714 1.18213 3.41376
                CHANNELS 3 Zrotation Xrotation Yrotation
                JOINT lMid2
                {
                  OFFSET 3.10165 -0.590103 1.0647
                  CHANNELS 3 Zrotation Xrotation Yrotation
                  End Site
                  {
                    OFFSET 2.48547 -0.328903 0.83742
                  }
                }
              }
              JOINT lRing1
              {
                OFFSET 8.82822 0.546677 1.51678
                CHANNELS 3 Zrotation Xrotation Yrotation
                JOINT lRing2
                {
                  OFFSET 2.60934 -0.819778 -0.0198488
                  CHANNELS 3 Zrotation Xrotation Yrotation
                  End Site
                  {
                    OFFSET 2.33842 -0.294052 0.168128
                  }
                }
              }
              JOINT lPinky1
              {
                OFFSET 8.27202 -0.0477905 -0.4584
                CHANNELS 3 Zrotation Xrotation Yrotation
                JOINT lPinky2
                {
                  OFFSET 1.82734 -0.647385 -0.700984
                  CHANNELS 3 Zrotation Xrotation Yrotation
                  End Site
                  {
                    OFFSET 1.69225 -0.51767 -0.607171
                  }
                }
              }
            }
          }
        }
      }
    }
  }
  JOINT rButtock
  {
    OFFSET -8.77824 4.35084 1.2192
    CHANNELS 3 Zrotation Xrotation Yrotation
    JOINT rThigh
    {
      OFFSET 0 -1.70687 -2.19456
      CHANNELS 3 Zrotation Xrotation Yrotation
      JOINT rShin
      {
        OFFSET 0 -36.8199 0.73152
        CHANNELS 3 Zrotation Xrotation Yrotation
        JOINT rFoot
        {
          OFFSET 0.73152 -45.1104 -5.12064
          CHANNELS 3 Zrotation Xrotation Yrotation
          End Site
          {
            OFFSET -1.1221 -3.69964 12.103
          }
        }
      }
    }
  }
  JOINT lButtock
  {
    OFFSET 8.77824 4.35084 1.2192
    CHANNELS 3 Zrotation Xrotation Yrotation
    JOINT lThigh
    {
      OFFSET 0 -1.70687 -2.19456
      CHANNELS 3 Zrotation Xrotation Yrotation
      JOINT lShin
      {
        OFFSET 0 -36.8199 0.73152
        CHANNELS 3 Zrotation Xrotation Yrotation
        JOINT lFoot
        {
          OFFSET -0.73152 -45.1104 -5.12064
          CHANNELS 3 Zrotation Xrotation Yrotation
          End Site
          {
            OFFSET 1.1221 -3.69964 12.103
          }
        }
      }
    }
  }
}
MOTION
Frames:	4
Frame Time:	0.00833333
-56.5582 71.0883 0.188628 16.1155 12.8779 -77.0797 -4.04692 33.0793 -3.56218 3.38134 -7.55455 -0.863334 -12.4691 -12.2173 -7.75204 10.8305 -5.75947 -8.86419 -0 0 0 -0 0 0 2.04949e-013 1.0447e-012 -3.9933e-013 64.605 35.6274 18.7058 -15.0185 -7.80718 27.6252 -3.91829 -47.6313 -8.86333 -1.13572e-009 4.32257e-010 -2.06287e-009 -1.88345e-009 7.90383e-010 -3.58943e-009 -1.13572e-009 4.32255e-010 -2.06289e-009 7.73091 5.47488 0.417314 -1.13573e-009 4.32254e-010 -2.06288e-009 2.90554 0.965183 0.102902 -1.13572e-009 4.32253e-010 -2.06287e-009 10.2786 0.731801 0.0259123 -1.13573e-009 4.32257e-010 -2.06287e-009 2.22167 -0.733487 -0.20892 2.04903e-013 1.04468e-012 -3.99582e-013 21.4185 50.7077 -115.959 21.5657 -15.1187 -42.6305 0.000446049 0.576033 -0.0809572 -2.43021e-009 -7.35384e-009 -3.10478e-010 -4.19784e-009 -1.27038e-008 -5.30633e-010 -2.43021e-009 -7.35384e-009 -3.10465e-010 -7.73091 5.47488 -0.417314 -2.43021e-009 -7.35384e-009 -3.10473e-010 -2.90554 0.965183 -0.102902 -2.43021e-009 -7.35385e-009 -3.10473e-010 -10.2786 0.731801 -0.0259123 -2.4302e-009 -7.35385e-009 -3.10474e-010 -2.22167 -0.733487 0.20892 -2.03217e-016 0 -3.88251e-019 -38.6419 -49.9666 -26.0577 -1.18417 64.733 2.56508 -5.79774 -22.1428 -13.3329 2.03217e-016 0 3.88251e-019 25.0588 -59.2382 31.7468 0.858456 57.1371 -1.51003 1.04154 -6.60165 5.11623 
-56.7436 71.2967 0.550665 16.1511 12.9838 -77.2551 -3.69719 32.7515 -3.67703 3.11391 -7.38109 -0.887382 -11.2862 -12.7722 -6.60102 8.80048 -5.13667 -7.17628 -0 0 0 -0 0 0 5.45915e-013 1.13694e-014 -4.21119e-013 64.3273 35.9145 19.0631 -14.8984 -7.7032 27.3788 -3.7764 -47.0056 -8.67005 -3.14977e-009 3.33131e-010 -2.94349e-010 -5.42027e-009 6.5277e-010 -6.11351e-010 -3.14977e-009 3.33127e-010 -2.94369e-010 7.73091 5.47488 0.417314 -3.14977e-009 3.33126e-010 -2.94353e-010 2.90554 0.965183 0.102902 -3.14976e-009 3.33125e-010 -2.94351e-010 10.2786 0.731801 0.0259123 -3.14978e-009 3.3313e-010 -2.94345e-010 2.22167 -0.733487 -0.20892 5.45839e-013 1.13606e-014 -4.21401e-013 20.9442 50.8968 -115.272 21.6283 -15.209 -42.7956 0.000218524 0.348623 -0.048995 -4.82621e-009 -1.37114e-008 4.11359e-010 -8.33987e-009 -2.36924e-008 7.21116e-010 -4.82621e-009 -1.37114e-008 4.11374e-010 -7.73091 5.47488 -0.417314 -4.82621e-009 -1.37114e-008 4.11362e-010 -2.90554 0.965183 -0.102902 -4.82621e-009 -1.37114e-008 4.11361e-010 -10.2786 0.731801 -0.0259123 -4.82621e-009 -1.37114e-008 4.11359e-010 -2.22167 -0.733487 0.20892 -2.03217e-016 0 -3.88251e-019 -38.379 -50.001 -26.0706 -1.17545 64.6235 2.55559 -6.01273 -22.1179 -13.7778 2.03217e-016 0 3.88251e-019 24.9363 -58.8644 31.6807 0.819246 56.311 -1.45807 0.967036 -6.16736 4.94071 
-56.9524 71.4686 0.877761 16.1668 13.1057 -77.4126 -3.42173 32.4456 -3.70237 2.82804 -7.23053 -0.893324 -9.92163 -13.2029 -5.33963 6.58074 -4.62321 -5.37956 -0 0 0 -0 0 0 6.96595e-013 -5.49043e-013 -4.08552e-013 64.1453 36.1336 19.3087 -14.8354 -7.64866 27.2506 -3.62974 -46.339 -8.46866 -4.09259e-009 2.64062e-010 6.70579e-010 -7.08197e-009 5.49797e-010 1.01821e-009 -4.09259e-009 2.64057e-010 6.70556e-010 7.73091 5.47488 0.417314 -4.09259e-009 2.64056e-010 6.70575e-010 2.90554 0.965183 0.102902 -4.09258e-009 2.64056e-010 6.70575e-010 10.2786 0.731801 0.0259123 -4.0926e-009 2.64062e-010 6.70582e-010 2.22167 -0.733487 -0.20892 6.96484e-013 -5.49043e-013 -4.0885e-013 20.4686 51.06 -114.589 21.6828 -15.2881 -42.9405 1.18802e-005 0.0984326 -0.0138338 -5.92216e-009 -1.65486e-008 7.63626e-010 -1.02346e-008 -2.85964e-008 1.33191e-009 -5.92217e-009 -1.65486e-008 7.63642e-010 -7.73091 5.47488 -0.417314 -5.92216e-009 -1.65486e-008 7.63626e-010 -2.90554 0.965183 -0.102902 -5.92216e-009 -1.65486e-008 7.63626e-010 -10.2786 0.731801 -0.0259123 -5.92216e-009 -1.65486e-008 7.63623e-010 -2.22167 -0.733487 0.20892 -2.03217e-016 0 -3.88251e-019 -38.1394 -50.0199 -26.0336 -1.16731 64.517 2.54553 -6.18655 -22.1088 -14.1312 2.03217e-016 0 3.88251e-019 24.7451 -58.5042 31.5567 0.784129 55.5309 -1.41152 0.910443 -5.79362 4.81517 
-57.1343 71.603 1.15737 16.1564 13.2617 -77.5461 -3.24774 32.1576 -3.60027 2.50141 -7.1075 -0.874049 -8.3235 -13.5151 -3.94548 4.14656 -4.20142 -3.4637 -0 0 0 -0 0 0 5.41127e-013 -4.08028e-013 -3.30536e-013 64.1128 36.2773 19.3947 -14.8633 -7.67264 27.3078 -3.4852 -45.6556 -8.26758 -3.35693e-009 2.4108e-010 3.85618e-010 -5.80625e-009 4.99938e-010 5.50455e-010 -3.35693e-009 2.41076e-010 3.85598e-010 7.73091 5.47488 0.417314 -3.35693e-009 2.41075e-010 3.85615e-010 2.90554 0.965183 0.102902 -3.35693e-009 2.41075e-010 3.85615e-010 10.2786 0.731801 0.0259123 -3.35694e-009 2.4108e-010 3.85622e-010 2.22167 -0.733487 -0.20892 5.40964e-013 -4.08027e-013 -3.30832e-013 20.0209 51.1975 -113.945 21.7266 -15.3519 -43.0572 0.000105092 -0.153647 0.0215992 -4.95239e-009 -1.37385e-008 5.04948e-010 -8.55836e-009 -2.37398e-008 8.83175e-010 -4.9524e-009 -1.37385e-008 5.04966e-010 -7.73091 5.47488 -0.417314 -4.95239e-009 -1.37385e-008 5.04945e-010 -2.90554 0.965183 -0.102902 -4.95239e-009 -1.37385e-008 5.04946e-010 -10.2786 0.731801 -0.0259123 -4.95239e-009 -1.37385e-008 5.04942e-010 -2.22167 -0.733487 0.20892 -2.03217e-016 0 -3.88251e-019 -37.9298 -50.0244 -25.917 -1.16001 64.4161 2.53503 -6.31436 -22.105 -14.3877 2.03217e-016 0 3.88251e-019 24.4503 -58.157 31.3563 0.752482 54.7996 -1.37018 0.877302 -5.51076 4.76088 
